# AST/ASF file generated using VICON BodyLanguage
# -----------------------------------------------
:version 1.10
:name VICON
:units
  mass 1.0
  length 0.45
  angle deg
:documentation
   .ast/.asf automatically generated from VICON data using
   VICON BodyBuilder and BodyLanguage model FoxedUp or BRILLIANT.MOD
:root
   order TX TY TZ RX RY RZ
   axis XYZ
   position 0 0 0  
   orientation 0 0 0 
:bonedata
  begin
     id 1 
     name lhipjoint
     direction 0.535335 -0.74333 0.401095 
     length 2.04549 
     axis 0 0 0  XYZ
  end
  begin
     id 2 
     name lfemur
     direction 0.34202 -0.939693 0  
     length 6.95643  
     axis 0 0 20  XYZ
    dof rx ry rz
    limits (-160.0 20.0)
           (-70.0 70.0)
           (-60.0 70.0)
  end
  begin
     id 3 
     name ltibia
     direction 0.34192 -0.939729 0   
     length 5.55969   
     axis 0 0 20   XYZ
    dof rx
    limits (-10.0 170.0)
  end
  begin
     id 4 
     name lfoot
     direction 0.216943 -0.596046 0.773088   
     length 2.27918   
     axis -90 7.62852e-016 20   XYZ
    dof rx rz
    limits (-45.0 90.0)
           (-70.0 20.0)
  end
  begin
     id 5 
     name ltoes
     direction 1.53519e-011 -4.21748e-011 1   
     length 1.05562   
     axis -90 7.62852e-016 20   XYZ
    dof rx
    limits (-90.0 20.0)
  end
  begin
     id 6 
     name rhipjoint
     direction -0.576368 -0.719173 0.38806   
     length 2.1142  
     axis 0 0 0  XYZ 
  end
  begin
     id 7 
     name rfemur
     direction -0.34202 -0.939693 0   
     length 7.07928   
     axis 0 0 -20   XYZ
    dof rx ry rz
    limits (-160.0 20.0)
           (-70.0 70.0)
           (-70.0 60.0)
  end
  begin
     id 8 
     name rtibia
     direction -0.34202 -0.939693 0   
     length 5.79974   
     axis 0 0 -20   XYZ
    dof rx
    limits (-10.0 170.0)
 end
 begin
     id 9 
     name rfoot
     direction -0.189288 -0.520065 0.832888   
     length 2.42173  
     axis -90 -7.62852e-016 -20   XYZ
    dof rx rz
    limits (-45.0 90.0)
           (-20.0 70.0)
  end
  begin
     id 10 
     name rtoes
     direction -1.53574e-011 -4.21658e-011 1   
     length 1.14469   
     axis -90 -7.62852e-016 -20   XYZ
    dof rx
    limits (-90.0 20.0)
  end
  begin
     id 11 
     name lowerback
     direction -0.00135702 0.993803 0.111144   
     length 1.91308   
     axis 0 0 0   XYZ
    dof rx ry rz
    limits (-20.0 45.0)
           (-30.0 30.0)
           (-30.0 30.0)
  end
  begin
     id 12 
     name upperback
     direction -0.0056745 0.999813 0.0184631   
     length 1.9212   
     axis 0 0 0   XYZ
    dof rx ry rz
    limits (-20.0 45.0)
           (-30.0 30.0)
           (-30.0 30.0)
  end
  begin
     id 13 
     name thorax
     direction -0.00733434 0.999426 -0.0330788   
     length 1.94196   
     axis 0 0 0   XYZ
    dof rx ry rz
    limits (-20.0 45.0)
           (-30.0 30.0)
           (-30.0 30.0)
  end
  begin
     id 14 
     name lowerneck
     direction 0.0563074 0.996944 -0.0541571   
     length 2.34257   
     axis 0 0 0   XYZ
    dof rx ry rz
    limits (-20.0 45.0)
           (-30.0 30.0)
           (-30.0 30.0)
  end
  begin
     id 15 
     name upperneck
     direction -0.0544519 0.976166 -0.210085   
     length 2.32506   
     axis 0 0 0   XYZ
    dof rx ry rz
    limits (-20.0 45.0)
           (-30.0 30.0)
           (-30.0 30.0)
  end
  begin
     id 16
     name head
     direction -0.0226035 0.997615 -0.0652205  
     length 2.3648  
     axis 0 0 0   XYZ
    dof rx ry rz
    limits (-20.0 45.0)
           (-30.0 30.0)
           (-30.0 30.0)
  end
  begin
     id 17 
     name lclavicle
     direction 0.92109 0.381297 -0.0787716  
     length 4.0487  
     axis 0 0 0   XYZ
    dof ry rz
    limits (-20.0 10.0)
           (0.0 20.0)
  end
  begin
     id 18 
     name lhumerus
     direction 1 -4.48986e-011 3.56724e-027   
     length 4.94991   
     axis 180 -30 -90   XYZ
    dof rx ry rz
    limits (-60.0 90.0)
           (-90.0 90.0)
           (-90.0 90.0)
  end
  begin
     id 19
     name lradius
     direction 1 -4.48981e-011 8.62147e-027   
     length 2.7606   
     axis 180 -30 -90   XYZ
    dof rx
    limits (-10.0 170.0)
  end
  begin
     id 20
     name lwrist
     direction 1 -4.48989e-011 1.59799e-026   
     length 1.3803   
     axis -1.17785e-014 90 90   XYZ
    dof ry
    limits (-180.0 0.0)
 end
  begin
     id 21 
     name lhand
     direction 1 -4.48896e-011 3.19599e-026   
     length 0.843936   
     axis -2.03931e-014 90 90   XYZ
    dof rx rz
    limits (-90.0 90.0)
           (-45.0 45.0)
  end
  begin
     id 22 
     name lfingers
     direction 1 -4.48887e-011 6.39197e-026   
     length 0.680403   
     axis -4.07862e-014 90 90   XYZ
    dof rx
    limits (0.0 90.0)
  end
  begin
     id 23
     name lthumb
     direction 0.707107 -6.348e-011 0.707107   
     length 0.976926   
     axis -90 45 2.85299e-015   XYZ
    dof rx rz
    limits (-45.0 45.0)
           (-45.0 45.0)
  end
  begin
     id 24 
     name rclavicle
     direction -0.951104 0.307692 -0.026953   
     length 4.21801  
     axis 0 0 0   XYZ 
    dof ry rz
    limits (-10.0 20.0)
           (-20.0 0.0)
  end
  begin
     id 25 
     name rhumerus
     direction -1 -4.4896e-011 -1.8171e-018  
     length 4.32982   
     axis 180 30 90   XYZ
    dof rx ry rz
    limits (-90.0 60.0)
           (-90.0 90.0)
           (-90.0 90.0)
  end
  begin
     id 26 
     name rradius
     direction -1 -4.48959e-011 8.25165e-027   
     length 3.20057   
     axis 180 30 90   XYZ
    dof rx
    limits (-10.0 170.0)
  end
  begin
     id 27 
     name rwrist
     direction -1 -4.48997e-011 1.59799e-026   
     length 1.60029   
     axis -1.17785e-014 -90 -90   XYZ
    dof ry
    limits (-180.0 0.0)
  end
  begin
     id 28
     name rhand
     direction -1 -4.49023e-011 3.19599e-026   
     length 0.960433   
     axis -2.03931e-014 -90 -90   XYZ
    dof rx rz
    limits (-90.0 90.0)
           (-45.0 45.0)
  end
  begin
     id 29
     name rfingers
     direction -1 -4.48802e-011 6.39197e-026   
     length 0.774326   
     axis -4.07862e-014 -90 -90   XYZ
    dof rx
    limits (0.0 90.0)
  end
  begin
     id 30
     name rthumb
     direction -0.707107 -6.34876e-011 0.707107   
     length 1.11178   
     axis -90 -45 -2.85299e-015   XYZ
    dof rx rz
    limits (-45.0 45.0)
           (-45.0 45.0)
  end
:hierarchy
  begin
    root lhipjoint rhipjoint lowerback
    lhipjoint lfemur
    lfemur ltibia
    ltibia lfoot
    lfoot ltoes
    rhipjoint rfemur
    rfemur rtibia
    rtibia rfoot
    rfoot rtoes
    lowerback upperback
    upperback thorax
    thorax lowerneck lclavicle rclavicle
    lowerneck upperneck
    upperneck head
    lclavicle lhumerus
    lhumerus lradius
    lradius lwrist
    lwrist lhand lthumb
    lhand lfingers
    rclavicle rhumerus
    rhumerus rradius
    rradius rwrist
    rwrist rhand rthumb
    rhand rfingers
end

#!OML:ASF C:\KaitlinTest1\Natural Motions\Nikki\Session 2\Nikki.ASF
:FULLY-SPECIFIED
:DEGREES
593
root -13.8158 16.7362 4.99919 -319.616 93.0275 -329.221
lowerback -11.5522 -1.36442 2.07296
upperback -4.68249 -1.82406 -0.650667
thorax 1.49432 -0.855862 -2.06766
lowerneck -8.72739 -13.2548 -7.87678
upperneck 5.15291 40.5595 5.65419
head 165.504 59.2145 -39.1252
rclavicle -1.58034e-014 -3.97569e-016
rhumerus -38.5808 -28.7128 -79.3752
rradius 16.0739
rwrist 24.4032
rhand -36.4517 0.863182
rfingers 7.12502
rthumb -9.54564 -28.9006
lclavicle -1.58034e-014 -3.97569e-016
lhumerus -40.2892 18.5793 79.1693
lradius 19.4728
lwrist -42.9869
lhand -32.8172 2.84769
lfingers 7.12502
lthumb -6.03773 32.7417
rfemur -9.04574 -18.6442 21.2473
rtibia 11.48
rfoot -9.59097 12.6779
rtoes 4.37326e-014
lfemur -15.6097 19.6526 -19.0239
ltibia 14.8005
lfoot -2.08838 -20.1061
ltoes 5.725e-014
594
root -13.8148 16.7365 4.99864 -319.45 93.0347 -329.069
lowerback -11.5733 -1.36278 2.08919
upperback -4.67563 -1.82411 -0.653189
thorax 1.51225 -0.8558 -2.08014
lowerneck -8.7381 -13.2791 -7.83419
upperneck 5.14134 40.4935 5.64222
head 165.372 59.2879 -39.2095
rclavicle 2.85753e-015 -7.95139e-015
rhumerus -38.5917 -28.7929 -79.327
rradius 16.043
rwrist 24.494
rhand -36.4387 0.889483
rfingers 7.12502
rthumb -9.53314 -28.8749
lclavicle 2.85753e-015 -7.95139e-015
lhumerus -40.2439 18.526 79.2044
lradius 19.4387
lwrist -42.9662
lhand -32.869 2.80663
lfingers 7.12502
lthumb -6.08771 32.6992
rfemur -9.05724 -18.6679 21.2645
rtibia 11.4703
rfoot -9.58223 12.7052
rtoes 5.00937e-014
lfemur -15.6216 19.6405 -19.0172
ltibia 14.8076
lfoot -2.06855 -20.1006
ltoes 1.11319e-014
595
root -13.8136 16.7353 4.99787 -319.675 93.0373 -329.29
lowerback -11.547 -1.36133 2.09314
upperback -4.6865 -1.82168 -0.656621
thorax 1.48653 -0.85501 -2.08469
lowerneck -8.72299 -13.2752 -7.8412
upperneck 5.14959 40.5099 5.64992
head 165.398 59.2842 -39.1964
rclavicle -3.60297e-015 4.37326e-015
rhumerus -38.6455 -28.9152 -79.2051
rradius 15.9881
rwrist 24.6734
rhand -36.471 0.952011
rfingers 7.12502
rthumb -9.56425 -28.8109
lclavicle -3.60297e-015 4.37326e-015
lhumerus -40.2811 18.6579 79.1348
lradius 19.4579
lwrist -43.0495
lhand -32.8158 2.86312
lfingers 7.12502
lthumb -6.0364 32.7571
rfemur -9.03222 -18.6079 21.2432
rtibia 11.4729
rfoot -9.59982 12.6315
rtoes 3.33958e-014
lfemur -15.615 19.6853 -19.033
ltibia 14.8028
lfoot -2.0774 -20.1602
ltoes 6.20208e-014
596
root -13.8133 16.735 4.99766 -319.868 93.0523 -329.44
lowerback -11.491 -1.35961 2.09508
upperback -4.67154 -1.81986 -0.663959
thorax 1.47148 -0.854846 -2.09185
lowerneck -8.70463 -13.2969 -7.81375
upperneck 5.14634 40.4566 5.64733
head 165.342 59.3086 -39.2209
rclavicle 9.26834e-015 9.54166e-015
rhumerus -38.682 -28.8959 -79.2116
rradius 16.0314
rwrist 24.6582
rhand -36.4692 0.944788
rfingers 7.12502
rthumb -9.56257 -28.8182
lclavicle 9.26834e-015 9.54166e-015
lhumerus -40.2716 18.6257 79.1556
lradius 19.4965
lwrist -43.0279
lhand -32.8265 2.90254
lfingers 7.12502
lthumb -6.04667 32.7963
rfemur -8.98667 -18.627 21.2337
rtibia 11.4785
rfoot -9.60571 12.6233
rtoes -4.29375e-014
lfemur -15.5609 19.647 -19.0098
ltibia 14.7948
lfoot -1.98 -20.1421
ltoes -1.27222e-014
597
root -13.8113 16.7352 4.99765 -320.102 93.0297 -329.686
lowerback -11.4857 -1.37933 2.05261
upperback -4.71437 -1.84052 -0.606954
thorax 1.42648 -0.864392 -2.01041
lowerneck -8.64055 -13.2448 -7.94771
upperneck 5.18103 40.5656 5.62895
head 165.421 59.1967 -39.1455
rclavicle -3.60297e-015 -7.95139e-016
rhumerus -38.7265 -28.6852 -79.154
rradius 16.0362
rwrist 24.5428
rhand -36.4522 0.894398
rfingers 7.12502
rthumb -9.54613 -28.8694
lclavicle -3.60297e-015 -7.95139e-016
lhumerus -40.3901 18.7573 79.1771
lradius 19.52
lwrist -43.1082
lhand -32.8369 2.86392
lfingers 7.12502
lthumb -6.05678 32.7573
rfemur -8.97521 -18.5418 21.1937
rtibia 11.4716
rfoot -9.6236 12.5605
rtoes 3.4191e-014
lfemur -15.5548 19.6122 -19.0336
ltibia 14.7989
lfoot -2.13698 -20.0623
ltoes -6.36111e-015
598
root -13.8101 16.735 4.99709 -320.051 93.0486 -329.637
lowerback -11.4932 -1.375 2.06803
upperback -4.70773 -1.83708 -0.597554
thorax 1.43737 -0.862652 -2.00923
lowerneck -8.61836 -13.2729 -7.94684
upperneck 5.14879 40.4134 5.5853
head 165.274 59.3037 -39.2059
rclavicle 6.23687e-015 -3.97569e-015
rhumerus -38.7433 -28.8217 -79.0441
rradius 15.9931
rwrist 24.7114
rhand -36.4619 0.909328
rfingers 7.12502
rthumb -9.55547 -28.854
lclavicle 6.23687e-015 -3.97569e-015
lhumerus -40.3657 18.7925 79.1885
lradius 19.5158
lwrist -43.0913
lhand -32.8144 2.87797
lfingers 7.12502
lthumb -6.035 32.772
rfemur -8.97817 -18.5715 21.2082
rtibia 11.4751
rfoot -9.62927 12.5839
rtoes 5.56597e-014
lfemur -15.5471 19.5945 -19.0167
ltibia 14.7911
lfoot -1.9826 -20.0977
ltoes 2.8625e-014
599
root -13.8096 16.7357 4.99637 -320.39 93.052 -329.981
lowerback -11.4934 -1.35703 2.06739
upperback -4.6897 -1.81279 -0.650196
thorax 1.45568 -0.850883 -2.06087
lowerneck -8.63723 -13.2913 -7.86714
upperneck 5.1582 40.4583 5.64618
head 165.45 59.2178 -39.1156
rclavicle -2.48729e-014 -5.1684e-015
rhumerus -38.7225 -28.8103 -79.1594
rradius 16.0008
rwrist 24.6017
rhand -36.4888 0.904143
rfingers 7.12502
rthumb -9.58148 -28.858
lclavicle -2.48729e-014 -5.1684e-015
lhumerus -40.2974 18.5096 79.2887
lradius 19.5852
lwrist -42.8833
lhand -32.8059 2.91451
lfingers 7.12502
lthumb -6.02685 32.8088
rfemur -8.98695 -18.6021 21.1929
rtibia 11.4937
rfoot -9.66446 12.5982
rtoes -7.87187e-014
lfemur -15.5519 19.6049 -19.038
ltibia 14.7771
lfoot -2.06567 -20.1114
ltoes -2.54444e-014
600
root -13.8078 16.7358 4.99593 -320.576 93.0367 -330.172
lowerback -11.5207 -1.36503 2.05224
upperback -4.6921 -1.82283 -0.614386
thorax 1.46929 -0.855115 -2.01713
lowerneck -8.61562 -13.2868 -7.93996
upperneck 5.1516 40.4171 5.59217
head 165.305 59.2554 -39.1807
rclavicle -8.94531e-016 -4.37326e-015
rhumerus -38.7244 -28.7913 -79.0611
rradius 15.9581
rwrist 24.6859
rhand -36.4895 0.862823
rfingers 7.12502
rthumb -9.58215 -28.8993
lclavicle -8.94531e-016 -4.37326e-015
lhumerus -40.3402 18.7214 79.2683
lradius 19.5993
lwrist -42.9692
lhand -32.8106 2.91476
lfingers 7.12502
lthumb -6.03132 32.8089
rfemur -8.98069 -18.6126 21.1713
rtibia 11.4935
rfoot -9.67902 12.6149
rtoes 1.27222e-014
lfemur -15.543 19.6083 -19.0598
ltibia 14.7665
lfoot -2.09312 -20.1239
ltoes 1.59028e-015
601
root -13.8082 16.7351 4.99573 -321.247 93.036 -330.837
lowerback -11.4724 -1.35554 2.03294
upperback -4.69028 -1.80612 -0.680216
thorax 1.44416 -0.847667 -2.07123
lowerneck -8.6149 -13.2923 -7.85348
upperneck 5.16689 40.4728 5.66982
head 165.55 59.1664 -39.0471
rclavicle 3.27001e-014 4.37326e-015
rhumerus -38.7846 -29.0472 -79.0199
rradius 15.923
rwrist 24.9127
rhand -36.4773 0.866975
rfingers 7.12502
rthumb -9.57035 -28.8957
lclavicle 3.27001e-014 4.37326e-015
lhumerus -40.2605 18.5009 79.2931
lradius 19.575
lwrist -42.8078
lhand -32.8035 2.92519
lfingers 7.12502
lthumb -6.02452 32.8195
rfemur -8.97198 -18.6026 21.1387
rtibia 11.485
rfoot -9.64061 12.5675
rtoes 3.10104e-014
lfemur -15.5401 19.5944 -19.0927
ltibia 14.7675
lfoot -1.99998 -20.127
ltoes 1.59028e-014
